<svg xmlns="http://www.w3.org/2000/svg" viewBox="0 0 480 360" role="img" aria-label="전기로 설치">
  <defs>
    <linearGradient id="bg" x1="0" y1="0" x2="0" y2="1"><stop offset="0" stop-color="#FBF2EC"/><stop offset="1" stop-color="#F1DDCD"/></linearGradient>
    <linearGradient id="glow" x1="0" y1="0" x2="0" y2="1"><stop offset="0" stop-color="#F59E0B"/><stop offset="1" stop-color="#C2410C"/></linearGradient>
  </defs>
  <rect width="480" height="360" fill="url(#bg)"/>
  <rect x="145" y="86" width="190" height="158" rx="12" fill="#ffffff" stroke="#9A3412" stroke-width="4"/>
  <rect x="168" y="110" width="104" height="98" rx="7" fill="#3a2a20"/>
  <rect x="179" y="121" width="82" height="76" rx="4" fill="url(#glow)"/>
  <g stroke="#FFE7BE" stroke-width="3.4" opacity="0.85" fill="none">
    <path d="M188 141 h64"/><path d="M188 157 h64"/><path d="M188 173 h64"/>
  </g>
  <rect x="286" y="110" width="40" height="98" rx="5" fill="#F3E7DC" stroke="#9A3412" stroke-width="2.5"/>
  <rect x="293" y="119" width="26" height="18" rx="2" fill="#C2410C"/>
  <circle cx="299" cy="156" r="4.5" fill="#9A3412"/><circle cx="313" cy="156" r="4.5" fill="#9A3412"/>
  <rect x="299" y="176" width="20" height="8" rx="2" fill="#9A3412" opacity="0.5"/>
  <rect x="162" y="244" width="13" height="36" fill="#9A3412"/>
  <rect x="305" y="244" width="13" height="36" fill="#9A3412"/>
  <rect x="110" y="280" width="260" height="7" rx="3.5" fill="#9A3412" opacity="0.35"/>
</svg>
